<?xml version="1.0" standalone="no"?><!DOCTYPE svg PUBLIC "-//W3C//DTD SVG 1.1//EN" "http://www.w3.org/Graphics/SVG/1.1/DTD/svg11.dtd"><svg t="1605764514649" class="icon" viewBox="0 0 1024 1024" version="1.1" xmlns="http://www.w3.org/2000/svg" p-id="1180" xmlns:xlink="http://www.w3.org/1999/xlink" width="200" height="200"><defs><style type="text/css"></style></defs><path fill="#71C9CE" d="M826.785185 202.271605c81.631041 84.520635 124.252557 192.880423 127.503351 324.356966-3.250794 118.834568-45.511111 218.886772-127.503351 300.517813s-182.044444 124.252557-300.517813 127.503351c-131.476543-3.250794-239.475132-45.511111-324.356966-127.503351s-128.22575-182.044444-130.754145-300.517813c2.528395-131.476543 46.23351-239.475132 130.754145-324.356966s192.880423-128.22575 324.356966-130.754145C644.740741 73.684656 744.792945 117.389771 826.785185 202.271605zM786.330864 786.692063c72.601058-72.601058 110.526984-163.98448 113.055379-273.789065-2.528395-109.804586-40.454321-200.826808-113.055379-273.789065-72.962257-72.601058-163.98448-110.526984-273.789065-113.055379-109.804586 2.528395-200.826808 40.454321-273.789065 113.055379C166.151675 312.07619 128.586949 403.098413 125.697354 512.902998c2.528395 109.804586 40.093122 200.826808 113.055379 273.789065 72.601058 72.962257 163.98448 110.526984 273.789065 113.055379C622.346384 897.219048 713.368607 859.293122 786.330864 786.692063zM567.444092 734.318166l55.624691 0 0 27.089947L429.82716 761.408113l0-27.089947 54.902293 0 0-304.129806L429.82716 430.18836l0-27.812346 137.616931 0L567.444092 734.318166zM473.532275 330.858554c-10.47478-10.11358-15.892769-23.116755-15.892769-39.009524 0-15.53157 5.417989-28.534744 15.892769-39.009524 10.47478-10.11358 23.477954-15.53157 39.009524-15.53157 15.53157 0 28.534744 5.05679 39.009524 15.53157 10.47478 10.47478 15.892769 23.116755 15.892769 39.009524 0 15.53157-5.417989 28.534744-15.892769 39.009524-10.47478 10.11358-23.477954 15.892769-39.009524 16.253968C497.371429 346.751323 484.368254 341.333333 473.532275 330.858554z" p-id="1181"></path></svg>